<?xml version="1.0" encoding="UTF-8" standalone="no"?>
<svg
   xmlns:dc="http://purl.org/dc/elements/1.1/"
   xmlns:cc="http://creativecommons.org/ns#"
   xmlns:rdf="http://www.w3.org/1999/02/22-rdf-syntax-ns#"
   xmlns:svg="http://www.w3.org/2000/svg"
   xmlns="http://www.w3.org/2000/svg"
   xmlns:sodipodi="http://sodipodi.sourceforge.net/DTD/sodipodi-0.dtd"
   xmlns:inkscape="http://www.inkscape.org/namespaces/inkscape"
   version="1.1"
   id="svg10"
   xml:space="preserve"
   width="831.50665"
   height="831.50665"
   viewBox="0 0 831.50665 831.50665"
   sodipodi:docname="151496.svg"
   inkscape:version="1.0.1 (c497b03c, 2020-09-10)"><metadata
     id="metadata16"><rdf:RDF><cc:Work
         rdf:about=""><dc:format>image/svg+xml</dc:format><dc:type
           rdf:resource="http://purl.org/dc/dcmitype/StillImage" /><dc:title></dc:title></cc:Work></rdf:RDF></metadata><defs
     id="defs14" /><sodipodi:namedview
     pagecolor="#ffffff"
     bordercolor="#666666"
     borderopacity="1"
     objecttolerance="10"
     gridtolerance="10"
     guidetolerance="10"
     inkscape:pageopacity="0"
     inkscape:pageshadow="2"
     inkscape:window-width="757"
     inkscape:window-height="480"
     id="namedview12"
     showgrid="false"
     inkscape:zoom="1.2122573"
     inkscape:cx="415.75333"
     inkscape:cy="415.75333"
     inkscape:window-x="573"
     inkscape:window-y="190"
     inkscape:window-maximized="0"
     inkscape:current-layer="g18" /><g
     id="g18"
     inkscape:groupmode="layer"
     inkscape:label="ink_ext_XXXXXX"
     transform="matrix(1.3333333,0,0,-1.3333333,0,831.50667)"><g
       id="g20"
       transform="scale(0.1)"><path
         d="m 4839.16,1843.95 c -167.41,22.9 -363.72,235.23 -363.72,235.23 l 716.64,87.48 c -27.5,-201.12 -185.52,-345.61 -352.92,-322.71 z m -479.62,-342.05 -112.3,160.35 -151.27,-124.32 -63.48,77.25 234.67,192.97 174.22,-248.93 z m -633.81,494.32 c -167.41,22.9 -280.83,204.49 -253.33,405.62 l 666.85,-276.68 c 0,0 -246.11,-151.84 -413.52,-128.94 z M 2589.15,3809.95 c -166.15,-30.7 -419.08,109.49 -419.08,109.49 l 653.2,307.51 c 36.86,-199.62 -67.96,-386.32 -234.12,-417 z m -348.36,-475.1 -156.93,117.19 -104.59,-165.43 -84.57,53.42 162.4,256.73 243.46,-181.73 z m -756.74,271.02 c -166.16,-30.69 -330.74,106.26 -367.6,305.87 l 719.94,-53.93 c 0,0 -186.18,-221.27 -352.34,-251.94 z M 5629.47,2145.83 c -410.41,-8.32 -224.16,417.89 268.01,613.33 -492.17,-195.44 -930.18,-38.95 -630.3,225.19 -299.88,-264.14 -431.17,182.07 -188.94,642.1 -242.23,-460.03 -678.35,-621.7 -627.59,-232.64 -50.76,-389.06 -438.16,-131.65 -557.47,370.43 119.31,-502.08 -110.86,-906.25 -331.22,-581.64 170.65,-251.38 -68.38,-338.23 -381.34,-224.85 -244.6,298.78 -235.15,590.45 90.35,473.32 -395.02,142.13 -64.1,468.99 476.2,470.36 -540.3,-1.37 -889.14,306.28 -501.99,442.71 -387.15,-136.43 -343.76,326.67 62.44,666.41 -406.2,-339.74 -871.18,-328.3 -669.11,16.47 -202.07,-344.77 -466.49,37.87 -380.52,550.63 -85.97,-512.76 -449.53,-802.87 -523.16,-417.48 73.63,-385.39 -374.89,-262.24 -645.44,177.22 C 1359.94,4897.93 1267.92,4442 956.977,4681.29 1267.92,4442 845.168,4248.04 348.625,4402.16 845.168,4248.04 1067.75,3839.63 668.93,3814.45 c 398.82,25.18 199.656,-395.14 -286.614,-604.85 486.27,209.71 919.294,39.91 623.144,-244.33 296.15,284.24 413.76,-165.76 169.24,-647.57 244.52,481.81 685.37,630.08 634.39,213.38 50.98,416.7 430.34,147.57 545.91,-387.28 -115.57,534.85 126.83,931.82 348.82,571.24 -170.8,277.43 64.56,362.79 375.87,231.11 254.27,-277.95 258.98,-580.6 -62.75,-496.56 386.64,-100.99 65.86,-437.8 -461.62,-484.67 527.48,46.87 885.55,-249.99 515.28,-427.18 370.27,177.19 341.03,-287.02 -42.07,-668.002 383.1,380.982 848.22,383.752 669.31,3.961 178.91,379.791 454.9,5.391 397.16,-538.75 57.74,544.141 412.26,845.231 510.16,433.25 -97.9,411.981 354.18,302.581 650.55,-157.418 -296.37,459.999 -218.32,918.529 112.32,659.829 -330.64,258.7 85.99,465.48 599.54,297.57 -513.55,167.91 -748.51,569.33 -338.1,577.65"
         style="fill:#34aed7;fill-opacity:1;fill-rule:nonzero;stroke:none"
         id="path22" /><path
         d="m 5005.69,4479.62 c -159.61,52.19 -232.63,176.93 -105.08,179.53 -127.55,-2.6 -69.66,129.88 83.3,190.62 -152.96,-60.74 -289.1,-12.11 -195.9,69.98 -93.2,-82.09 -134,56.58 -58.72,199.56 -75.28,-142.98 -210.82,-193.21 -195.04,-72.3 -15.78,-120.91 -136.18,-40.92 -173.26,115.13 37.08,-156.05 -34.45,-281.66 -102.94,-180.76 68.49,-100.9 -75.17,-117 -206.73,-23.18 131.56,-93.82 157.51,-236.04 37.33,-204.64 120.18,-31.4 20.48,-136.06 -143.45,-150.63 163.93,14.57 275.22,-77.69 160.14,-132.77 115.08,55.08 105.99,-89.19 -13.07,-207.6 119.06,118.41 263.61,119.26 208.01,1.23 55.6,118.03 141.38,1.67 123.43,-167.45 17.95,169.12 128.13,262.69 158.56,134.66 -30.43,128.03 110.07,94.04 202.18,-48.92 -92.11,142.96 -67.86,285.46 34.9,205.06 -102.76,80.4 26.73,144.67 186.34,92.48"
         style="fill:#34aed7;fill-opacity:1;fill-rule:nonzero;stroke:none"
         id="path24" /><path
         d="m 946.164,1407.1 c 163.946,14.56 275.226,-77.7 160.156,-132.77 115.07,55.07 105.98,-89.19 -13.08,-207.6 119.06,118.41 263.62,119.27 208.02,1.23 55.6,118.04 141.37,1.68 123.43,-167.448 17.94,169.128 128.12,262.688 158.55,134.658 -30.43,128.03 110.08,94.04 202.19,-48.92 -92.11,142.96 -67.86,285.46 34.89,205.07 -102.75,80.39 26.74,144.66 186.34,92.48 -159.6,52.18 -232.62,176.93 -105.08,179.53 -127.54,-2.6 -69.66,129.87 83.3,190.61 -152.96,-60.74 -289.09,-12.11 -195.89,69.98 -93.2,-82.09 -134,56.58 -58.72,199.56 -75.28,-142.98 -210.82,-193.22 -195.05,-72.3 -15.77,-120.92 -136.17,-40.91 -173.26,115.13 37.09,-156.04 -34.45,-281.66 -102.93,-180.77 68.48,-100.89 -75.17,-116.99 -206.73,-23.18 131.56,-93.81 157.5,-236.03 37.34,-204.63 120.16,-31.4 20.47,-136.07 -143.476,-150.63"
         style="fill:#34aed7;fill-opacity:1;fill-rule:nonzero;stroke:none"
         id="path26" /></g></g></svg>
