<?xml version="1.0" encoding="UTF-8" standalone="no"?>
<svg
   xmlns:dc="http://purl.org/dc/elements/1.1/"
   xmlns:cc="http://creativecommons.org/ns#"
   xmlns:rdf="http://www.w3.org/1999/02/22-rdf-syntax-ns#"
   xmlns:svg="http://www.w3.org/2000/svg"
   xmlns="http://www.w3.org/2000/svg"
   xmlns:sodipodi="http://sodipodi.sourceforge.net/DTD/sodipodi-0.dtd"
   xmlns:inkscape="http://www.inkscape.org/namespaces/inkscape"
   version="1.1"
   id="svg24"
   xml:space="preserve"
   width="831.50665"
   height="831.50665"
   viewBox="0 0 831.50665 831.50665"
   sodipodi:docname="arm.svg"
   inkscape:version="1.0.1 (c497b03c, 2020-09-10)"><metadata
     id="metadata30"><rdf:RDF><cc:Work
         rdf:about=""><dc:format>image/svg+xml</dc:format><dc:type
           rdf:resource="http://purl.org/dc/dcmitype/StillImage" /><dc:title></dc:title></cc:Work></rdf:RDF></metadata><defs
     id="defs28" /><sodipodi:namedview
     pagecolor="#ffffff"
     bordercolor="#666666"
     borderopacity="1"
     objecttolerance="10"
     gridtolerance="10"
     guidetolerance="10"
     inkscape:pageopacity="0"
     inkscape:pageshadow="2"
     inkscape:window-width="844"
     inkscape:window-height="452"
     id="namedview26"
     showgrid="false"
     inkscape:zoom="1.2122573"
     inkscape:cx="247.05976"
     inkscape:cy="415.75333"
     inkscape:window-x="0"
     inkscape:window-y="25"
     inkscape:window-maximized="0"
     inkscape:current-layer="g32" /><g
     id="g32"
     inkscape:groupmode="layer"
     inkscape:label="ink_ext_XXXXXX"
     transform="matrix(1.3333333,0,0,-1.3333333,0,831.50667)"><g
       id="g34"
       transform="scale(0.1)"><path
         d="m 2651.79,4525.88 c 153.27,-89.44 395.95,-230.06 702.73,-166.2 306.74,63.97 562.5,651.65 281.21,1060.75 -281.21,408.98 -1316.22,-12.7 -1584.62,-293.95 -268.41,-281.25 -856.3,-1354.69 -933.06,-2095.8 -76.61,-741.31 -259.667,-1597.36 268.41,-1648.73 0,0 498.39,-472.848 1712.5,-613.38 C 4313.07,628.141 4964.73,717.5 4964.73,717.5 v 2110.15 l -12.74,11.33 c 0,0 -281.06,293.85 -1022.32,191.7 -741.21,-102.44 -1444.14,-562.5 -1444.14,-562.5 0,0 217.19,1188.67 0,2070.41 0,0 12.89,76.76 166.26,-12.71"
         style="fill:#34aed7;fill-opacity:1;fill-rule:nonzero;stroke:none"
         id="path36" /></g></g></svg>
