<?xml version="1.0" encoding="UTF-8" standalone="no"?>
<svg
   xmlns:dc="http://purl.org/dc/elements/1.1/"
   xmlns:cc="http://creativecommons.org/ns#"
   xmlns:rdf="http://www.w3.org/1999/02/22-rdf-syntax-ns#"
   xmlns:svg="http://www.w3.org/2000/svg"
   xmlns="http://www.w3.org/2000/svg"
   xmlns:sodipodi="http://sodipodi.sourceforge.net/DTD/sodipodi-0.dtd"
   xmlns:inkscape="http://www.inkscape.org/namespaces/inkscape"
   version="1.1"
   id="svg10"
   xml:space="preserve"
   width="831.50269"
   height="831.50269"
   viewBox="0 0 831.50269 831.50269"
   sodipodi:docname="187486.svg"
   inkscape:version="1.0.1 (c497b03c, 2020-09-10)"><metadata
     id="metadata16"><rdf:RDF><cc:Work
         rdf:about=""><dc:format>image/svg+xml</dc:format><dc:type
           rdf:resource="http://purl.org/dc/dcmitype/StillImage" /><dc:title></dc:title></cc:Work></rdf:RDF></metadata><defs
     id="defs14"><clipPath
       clipPathUnits="userSpaceOnUse"
       id="clipPath26"><path
         d="M 0,623.627 H 623.627 V 0 H 0 Z"
         id="path24" /></clipPath></defs><sodipodi:namedview
     pagecolor="#ffffff"
     bordercolor="#666666"
     borderopacity="1"
     objecttolerance="10"
     gridtolerance="10"
     guidetolerance="10"
     inkscape:pageopacity="0"
     inkscape:pageshadow="2"
     inkscape:window-width="844"
     inkscape:window-height="480"
     id="namedview12"
     showgrid="false"
     inkscape:zoom="1.2122631"
     inkscape:cx="415.75134"
     inkscape:cy="415.75134"
     inkscape:window-x="702"
     inkscape:window-y="269"
     inkscape:window-maximized="0"
     inkscape:current-layer="g18" /><g
     id="g18"
     inkscape:groupmode="layer"
     inkscape:label="187486"
     transform="matrix(1.3333333,0,0,-1.3333333,0,831.50267)"><g
       id="g20"><g
         id="g22"
         clip-path="url(#clipPath26)"><g
           id="g28"
           transform="translate(454.5443,475.2455)"><path
             d="M 0,0 C 0.811,-1.426 1.27,-2.9 1.514,-3.662 6.359,-19.01 6.09,-66.337 -3.58,-80.926 c 11.249,-5.853 48.855,-3.762 64.059,-1.008 3.154,0.577 5.878,0.039 8.056,-1.601 5.313,-4.014 6.26,-13.731 7.451,-26.026 0.489,-5.107 1.045,-10.82 1.983,-16.523 46.296,7.234 60.654,-18.736 70.016,-43.495 -0.302,21.705 -5.023,50.855 -15.59,79.991 -1.874,-1.292 -3.833,-2.237 -5.989,-2.433 -0.361,-0.04 -0.732,-0.059 -1.103,-0.059 -13.428,0 -27.383,22.1 -38.662,39.941 -4.942,7.823 -11.094,17.559 -13.33,18.243 -3.477,-0.987 -7.383,-5.762 -11.163,-10.381 -5.078,-6.221 -10.332,-12.637 -17.324,-12.637 h -0.107 c -4.649,0.039 -9.19,2.959 -13.877,8.916 -3.301,4.18 -1.875,8.564 -0.625,12.432 2.012,6.201 3.916,12.05 -8.838,20.937 -1.133,0.791 -1.416,2.344 -0.625,3.477 0.801,1.142 2.363,1.406 3.477,0.625 15.8,-11.006 12.88,-20.01 10.742,-26.582 -1.211,-3.75 -1.778,-5.801 -0.205,-7.803 3.642,-4.619 7.002,-6.973 10,-7.002 h 0.058 c 4.619,0 9.112,5.488 13.457,10.801 4.287,5.244 8.721,10.664 14.209,12.08 4.522,1.152 8.897,-5.41 18.379,-20.43 9.502,-15.039 23.76,-37.617 34.414,-37.617 0.225,0 0.449,0.01 0.664,0.029 1.615,0.15 3.146,1.06 4.63,2.362 C 118.188,-52.597 98.49,-21.158 69.336,-0.312 50.571,2.05 17.871,5.022 0,0"
             style="fill:#34aed7;fill-opacity:1;fill-rule:nonzero;stroke:none"
             id="path30" /></g><g
           id="g32"
           transform="translate(260.2474,205.4994)"><path
             d="m 0,0 c -0.42,-0.918 -1.328,-1.455 -2.275,-1.455 -0.352,0 -0.704,0.068 -1.045,0.225 -29.395,13.505 -46.035,31.035 -49.434,52.109 -4.189,25.869 13.369,50.195 24.395,60.488 1.015,0.928 2.597,0.899 3.535,-0.117 0.947,-1.016 0.888,-2.598 -0.117,-3.535 C -35.254,98.096 -51.67,75.469 -47.822,51.68 -44.697,32.344 -29.023,16.074 -1.23,3.32 0.02,2.744 0.576,1.26 0,0 M 27.26,26.361 C 24.707,26.067 22.051,25.866 19.355,25.664 10.879,25.029 2.119,24.375 -5.654,20.996 -5.977,20.859 -6.318,20.791 -6.65,20.791 c -0.967,0 -1.885,0.566 -2.295,1.504 -0.547,1.269 0.029,2.744 1.299,3.291 8.544,3.711 18.154,4.434 26.63,5.068 4.11,0.305 7.869,0.671 11.28,1.261 0.683,1.122 2.08,1.585 3.252,0.966 0.089,-0.047 0.098,-0.161 0.18,-0.216 3.403,0.935 6.219,2.3 7.906,4.689 2.939,4.179 2.919,11.416 -0.039,22.148 -0.333,1.201 0.283,2.471 1.435,2.959 1.123,0.469 2.49,0.068 3.125,-1.016 4.16,-6.992 9.043,-11.113 14.512,-12.256 6.308,-1.328 13.701,1.094 22.51,7.383 1.015,0.733 2.431,0.606 3.291,-0.332 5.478,-5.898 8.369,-4.951 22.861,1.27 2.588,1.113 5.498,2.363 8.799,3.72 1.103,0.469 2.422,0.049 3.076,-1.005 7.129,-11.631 38.769,-9.932 61.865,-8.682 2.568,0.137 5.078,0.273 7.481,0.391 18.584,14.062 58.437,47.959 43.271,69.941 -8.789,12.725 -32.91,10.693 -48.887,9.336 l -4.006,-0.321 c -3.47,-7.619 -11.755,-15.852 -25.515,-25.255 -0.43,-0.303 -0.918,-0.44 -1.406,-0.44 -0.791,0 -1.582,0.381 -2.061,1.094 -0.781,1.133 -0.488,2.695 0.654,3.467 17.823,12.197 26.299,22.49 25.186,30.615 -1.113,8.145 -11.611,15.479 -32.08,22.432 -12.578,4.218 -26.055,-6.309 -40.381,-17.451 -13.334,-10.39 -27.088,-21.073 -41.774,-21.309 3.975,-4.049 6.179,-8.838 6.403,-14.375 20.43,12.715 39.414,-3.516 53.525,-15.576 5.518,-4.717 10.742,-9.18 14.385,-10.283 2.227,-0.704 9.434,1.435 15.811,3.291 10.263,2.988 21.914,6.377 28.642,4.052 1.309,-0.449 2.002,-1.865 1.553,-3.173 -0.44,-1.299 -1.807,-2.032 -3.174,-1.553 -5.234,1.777 -16.553,-1.485 -25.625,-4.121 -9.326,-2.715 -15.254,-4.317 -18.662,-3.282 -4.648,1.416 -9.99,5.977 -16.182,11.27 -14.541,12.422 -32.636,27.891 -51.504,12.324 -0.8,-0.674 -1.943,-0.771 -2.832,-0.244 -0.908,0.518 -1.396,1.543 -1.23,2.568 1.113,6.778 -0.703,12.188 -5.527,16.543 -12.93,11.67 -43.252,11.973 -59.922,7.725 C -14.424,111.26 -7.422,79.6 4.404,68.896 4.98,68.369 5.283,67.607 5.215,66.826 5.146,66.055 4.727,65.352 4.062,64.932 2.1,63.682 1.123,62.803 0.264,62.031 c -2.412,-2.177 -3.682,-2.998 -12.149,-4.336 -0.136,-0.019 -0.263,-0.029 -0.39,-0.029 -1.211,0 -2.276,0.879 -2.471,2.109 -0.215,1.368 0.713,2.647 2.08,2.862 7.441,1.172 8.018,1.699 9.59,3.105 0.498,0.459 1.113,1.006 1.953,1.66 -11.86,13.489 -17.808,44.406 -4.274,63.676 -9.726,10.885 -22.665,11.466 -38.529,1.51 -30.411,-19.054 -60.861,-72.029 -56.006,-95.094 0.262,0.069 0.517,0.102 0.778,0.173 12.738,-64.926 73.781,-76.515 123.021,-61.989 -14.07,16.12 -4.291,36.22 3.393,50.683"
             style="fill:#34aed7;fill-opacity:1;fill-rule:nonzero;stroke:none"
             id="path34" /></g><g
           id="g36"
           transform="translate(345.4232,463.4388)"><path
             d="m 0,0 c -2.598,-12.861 1.914,-23.076 12.363,-28.018 1.25,-0.586 1.787,-2.07 1.192,-3.32 -0.42,-0.908 -1.319,-1.435 -2.256,-1.435 -0.361,0 -0.723,0.078 -1.065,0.244 -10.522,4.966 -16.117,14.639 -15.855,26.542 -0.15,0.095 -0.342,0.065 -0.473,0.196 -8.535,8.486 -13.74,8.633 -36.65,5.537 -1.309,-0.127 -2.617,0.781 -2.813,2.149 -0.185,1.367 0.782,2.626 2.149,2.812 20.816,2.829 28.983,3.324 38.368,-4.752 0.061,0.349 0.066,0.68 0.138,1.031 4.746,23.565 30.83,49.532 69.843,51.241 1.299,0.039 2.549,-1.006 2.608,-2.393 0.058,-1.377 -1.016,-2.549 -2.393,-2.607 C 28.691,45.635 4.365,21.709 0,0 m -107.646,-92.637 c -0.401,-0.957 -1.329,-1.533 -2.305,-1.533 -0.322,0 -0.645,0.059 -0.967,0.195 -1.27,0.528 -1.875,1.993 -1.338,3.272 1.074,2.558 -1.221,10.84 -3.642,19.599 -5.918,21.358 -14.795,53.438 -0.215,78.75 -6.582,8.877 -5.323,19.893 -4.209,29.659 0.742,6.455 1.445,12.558 -0.127,17.256 -0.44,1.308 0.273,2.724 1.582,3.164 1.318,0.429 2.724,-0.274 3.164,-1.582 1.914,-5.752 1.152,-12.383 0.351,-19.405 -1.113,-9.736 -2.265,-19.804 4.17,-27.256 0.713,-0.82 0.811,-2.021 0.235,-2.949 -14.707,-23.681 -5.938,-55.351 -0.137,-76.308 3.115,-11.26 5.176,-18.692 3.438,-22.862 m 364.274,-78.315 c -0.373,1.043 -0.765,1.991 -1.14,3.052 -9.551,26.748 -20.361,57.06 -70,48.291 -1.347,-0.274 -2.646,0.654 -2.9,2.011 -1.231,6.7 -1.885,13.428 -2.461,19.366 -0.986,10.195 -1.924,19.824 -5.479,22.509 -0.654,0.508 -1.855,1.123 -4.15,0.674 -10.949,-1.993 -56.233,-6.212 -69.004,2.672 -5.011,-1.26 -10.446,-4.181 -15.723,-7.066 -6.787,-3.721 -13.203,-7.227 -19.277,-7.696 -0.234,-0.019 -0.469,-0.029 -0.703,-0.029 -3.115,0 -5.83,1.602 -8.945,3.438 -6.455,3.798 -15.303,9.003 -35.098,5.371 -1.318,-0.264 -2.656,0.654 -2.91,2.011 -0.244,1.358 0.654,2.657 2.012,2.91 21.601,3.975 31.796,-2.021 38.535,-5.986 2.822,-1.67 4.785,-2.832 6.719,-2.734 5,0.39 10.966,3.652 17.275,7.099 5.674,3.106 11.523,6.309 17.266,7.686 7.07,8.018 9.941,43.916 6.904,65.908 -1.221,8.838 -3.008,11.563 -3.594,11.875 -1.113,0.166 -1.934,1.035 -2.07,2.158 -0.127,1.123 0.556,2.178 1.601,2.598 15.874,6.459 46.918,4.563 68.657,2.128 -55.03,55.038 -151.11,75.322 -176.061,68.359 -0.103,0.034 -0.247,0.064 -0.353,0.097 -0.845,-0.36 -1.699,-0.725 -2.682,-1.141 -14.043,-5.937 -46.914,-19.834 -47.393,-34.072 -0.195,-5.918 5.45,-11.797 16.768,-17.49 0.879,-0.449 1.426,-1.367 1.377,-2.354 -0.049,-0.986 -0.674,-1.855 -1.602,-2.216 -34.814,-13.467 -45.449,-47.539 -31.601,-101.25 0.341,-1.338 -0.459,-2.706 -1.797,-3.047 -0.215,-0.049 -0.42,-0.078 -0.625,-0.078 -1.113,0 -2.129,0.752 -2.422,1.875 -17.031,66.084 5.635,93.681 29.824,105.097 -10.137,5.996 -15.146,12.588 -14.912,19.629 0.537,16.255 28.765,29.269 46.709,36.923 -22.803,3.775 -68.665,3.29 -97.953,-13.523 -0.949,-0.019 -1.954,-0.122 -2.917,-0.161 -21.308,-13.4 -33.098,-26.171 -36.796,-39.743 -5.42,-19.873 5.596,-41.162 24.385,-73.847 0.273,-0.479 0.381,-1.036 0.312,-1.582 -2.373,-17.52 -16.523,-21.788 -27.89,-25.215 -5.039,-1.524 -9.795,-2.95 -13.174,-5.264 -3.301,-2.266 -9.043,-3.691 -15.684,-5.352 -11.748,-2.929 -26.367,-6.582 -29.931,-15.791 -2.188,-5.664 -0.079,-13.378 6.279,-22.91 0.762,-1.152 0.459,-2.705 -0.693,-3.467 -0.43,-0.283 -0.909,-0.419 -1.387,-0.419 -0.801,0 -1.602,0.39 -2.08,1.113 -3.06,4.59 -5.014,8.733 -6.312,12.632 -3.821,-1.43 -8.065,-2.466 -12.653,-2.466 -8.926,0 -18.623,3.369 -26.494,12.734 -0.889,1.065 -0.752,2.637 0.303,3.526 1.054,0.888 2.626,0.752 3.525,-0.303 12.621,-15.026 28.759,-10.763 34.145,-8.761 -0.57,3.649 -0.474,7.061 0.708,10.118 4.502,11.641 20.508,15.635 33.379,18.848 5.918,1.475 11.504,2.871 14.063,4.619 4.023,2.754 9.14,4.297 14.56,5.928 11.319,3.418 22.012,6.64 24.258,20.273 -19.17,33.389 -30.332,55.313 -24.443,76.905 3.561,13.075 13.778,25.275 31.5,37.668 -48.404,-5.184 -108.289,-32.559 -123.945,-59.71 19.313,-3.97 24.325,-6.584 26.429,-9.931 1.709,-2.725 0.957,-5.527 0.225,-8.232 -1.133,-4.17 -2.539,-9.317 3.379,-17.92 21.24,2.461 32.666,-4.873 41.875,-10.772 2.793,-1.787 5.42,-3.476 7.968,-4.609 1.26,-0.557 1.827,-2.041 1.27,-3.301 -0.41,-0.928 -1.328,-1.484 -2.285,-1.484 -0.342,0 -0.684,0.068 -1.016,0.214 -2.89,1.289 -5.683,3.077 -8.633,4.971 -9.189,5.879 -19.589,12.539 -40.019,9.834 -0.899,-0.117 -1.797,0.264 -2.344,0.996 -8.31,11.27 -6.338,18.555 -5.029,23.389 0.605,2.217 0.898,3.418 0.371,4.248 -1.875,2.983 -13.616,5.835 -26.331,8.327 -27.061,-12.327 -46.699,-51.453 -54.969,-88.661 19.647,0.991 23.147,10.424 26.622,20.5 3.32,9.619 7.08,20.537 25.947,21.182 13.467,0.459 22.237,-1.739 27.334,-6.924 6.143,-6.241 5.664,-15.664 5.206,-24.776 -0.137,-2.539 -0.264,-5.107 -0.264,-7.675 0,-1.377 -1.123,-2.5 -2.5,-2.5 -1.377,0 -2.5,1.123 -2.5,2.5 0,2.646 0.137,5.312 0.264,7.919 0.449,8.77 0.83,16.348 -3.77,21.026 -3.994,4.062 -11.787,5.889 -23.594,5.43 -15.439,-0.528 -18.066,-8.155 -21.396,-17.813 -3.766,-10.929 -8.2,-23.164 -32.417,-23.921 -1.665,-8.514 -2.688,-16.806 -3.077,-24.609 12.564,7.588 19.259,1.759 25.67,-4.107 6.24,-5.703 12.714,-11.601 26.367,-7.568 13.613,3.975 19.345,-3.613 25.39,-11.68 7.481,-9.961 15.957,-21.299 42.559,-18.535 1.455,0.176 2.598,-0.869 2.744,-2.236 0.137,-1.377 -0.859,-2.598 -2.236,-2.744 -2.823,-0.284 -5.469,-0.42 -7.949,-0.42 -23.399,0 -32.383,11.963 -39.112,20.937 -5.83,7.764 -9.678,12.93 -19.99,9.873 -16.338,-4.795 -24.561,2.657 -31.143,8.692 -6.633,6.05 -11.314,10.18 -22.8,1.551 -12.445,-80.553 48.96,-122.98 121.391,-106.162 -4.02,20.762 15.706,60.886 40.654,86.004 -20.85,1.944 -34.804,14.073 -41.051,25.609 -0.655,1.211 -0.205,2.734 1.006,3.388 1.23,0.655 2.734,0.205 3.388,-1.006 5.791,-10.683 18.916,-22.07 38.828,-23.281 -2.617,9.229 -3.642,23.985 -0.908,35.479 0.322,1.338 1.641,2.177 3.008,1.855 1.348,-0.322 2.178,-1.67 1.855,-3.008 -2.633,-11.074 -1.375,-24.683 0.784,-32.618 3.491,2.996 7.031,5.74 10.603,7.98 17.52,10.957 33.174,10.322 44.424,-1.729 3.301,3.399 7.109,7.52 11.27,12.022 19.832,21.467 46.649,50.448 66.517,53.367 -9.85,7.529 -12.12,15.881 -14.691,28.557 -0.274,1.357 0.605,2.675 1.953,2.949 1.318,0.263 2.666,-0.596 2.949,-1.953 3.163,-15.636 5.499,-21.901 18.183,-29.157 22.673,0.273 50.387,1.424 53.077,65.016 0.058,1.338 1.162,2.393 2.5,2.393 h 0.107 c 1.377,-0.059 2.451,-1.231 2.393,-2.608 -2.923,-68.992 -35.123,-69.537 -58.74,-69.811 -0.003,0 -0.006,-0.003 -0.01,-0.003 -0.003,0 -0.007,0.002 -0.01,0.002 -0.055,0 -0.112,-0.002 -0.166,-0.002 -1.621,-0.02 -3.213,-0.039 -4.756,-0.078 -17.969,-0.469 -46.65,-31.524 -65.635,-52.061 -2.737,-2.967 -5.284,-5.711 -7.68,-8.256 16.057,2.507 37.833,1.487 51.606,-6.285 0.464,0.217 0.959,0.408 1.494,0.303 14.854,-2.91 29.668,8.633 44.024,19.804 15.429,12.012 30,23.35 45.049,18.233 22.763,-7.725 34.013,-16.133 35.439,-26.475 0.225,-1.645 0.105,-3.321 -0.178,-5.014 l 1.946,0.161 c 18.154,1.533 42.988,3.633 53.427,-11.494 3.664,-5.311 4.697,-11.06 3.998,-16.977 8.305,-7.283 38.56,-3.554 55.631,2.328 1.26,0.459 2.715,-0.244 3.174,-1.553 0.449,-1.298 -0.244,-2.724 -1.553,-3.173 -9.365,-3.233 -25.644,-6.661 -39.482,-6.661 -7.551,0 -14.273,1.089 -18.858,3.723 -5.881,-20.294 -30.454,-41.786 -47.91,-54.924 -0.4,-0.302 -0.888,-0.468 -1.386,-0.498 -2.627,-0.117 -5.381,-0.263 -8.223,-0.42 -24.6,-1.338 -54.932,-2.949 -65.127,9.297 -2.529,-1.055 -4.824,-2.031 -6.904,-2.93 -13.526,-5.81 -19.629,-8.427 -26.963,-1.621 -9.297,-6.25 -17.402,-8.505 -24.707,-7.011 -4.004,0.849 -7.705,2.861 -11.065,6.015 0.782,-6.875 -0.166,-12.011 -2.851,-15.83 -2.762,-3.925 -7.103,-5.913 -12.22,-7.07 l -0.837,-1.582 c -7.721,-14.476 -17.988,-33.858 -3.34,-48.506 7.504,2.552 14.685,5.679 21.284,9.348 11.13,-12.385 26.301,-24.061 38.4,-22.12 10.625,-20.625 21.25,-38.75 38.75,-43.125 17.5,-4.375 44.375,-49.166 44.375,-49.166 h 22.061 c -4.921,16.232 -12.001,35.72 -23.53,52.327 12.459,1.652 22.543,6.823 23.53,13.714 104.108,-2.07 98.277,51.045 89.625,77.938 -29.694,2.285 -82.235,11.204 -93.079,21.592 -7.461,-2.852 -14.111,-5.567 -20.166,-8.047 -26.484,-10.811 -42.48,-17.363 -66.045,-10.156 -11.504,3.525 -26.045,-10.996 -31.787,-17.373 -0.488,-0.547 -1.172,-0.83 -1.855,-0.83 -0.596,0 -1.192,0.214 -1.67,0.644 -1.025,0.918 -1.113,2.5 -0.186,3.525 7.94,8.829 23.33,22.989 36.963,18.819 21.836,-6.67 36.358,-0.772 62.686,10 6.543,2.676 13.76,5.625 21.943,8.721 1.162,0.459 2.442,-0.02 3.057,-1.084 5.374,-9.277 70.579,-20.752 98.881,-21.38 23.775,4.431 54.591,41.015 48.922,62.149 0.167,1.28 0.238,2.784 0.358,4.177"
             style="fill:#34aed7;fill-opacity:1;fill-rule:nonzero;stroke:none"
             id="path38" /></g></g></g></g></svg>
