<?xml version="1.0" encoding="UTF-8" standalone="no"?>
<svg
   xmlns:dc="http://purl.org/dc/elements/1.1/"
   xmlns:cc="http://creativecommons.org/ns#"
   xmlns:rdf="http://www.w3.org/1999/02/22-rdf-syntax-ns#"
   xmlns:svg="http://www.w3.org/2000/svg"
   xmlns="http://www.w3.org/2000/svg"
   xmlns:sodipodi="http://sodipodi.sourceforge.net/DTD/sodipodi-0.dtd"
   xmlns:inkscape="http://www.inkscape.org/namespaces/inkscape"
   version="1.1"
   id="svg10"
   xml:space="preserve"
   width="831.50665"
   height="831.50665"
   viewBox="0 0 831.50665 831.50665"
   sodipodi:docname="eye.svg"
   inkscape:version="1.0.1 (c497b03c, 2020-09-10)"><metadata
     id="metadata16"><rdf:RDF><cc:Work
         rdf:about=""><dc:format>image/svg+xml</dc:format><dc:type
           rdf:resource="http://purl.org/dc/dcmitype/StillImage" /><dc:title /></cc:Work></rdf:RDF></metadata><defs
     id="defs14" /><sodipodi:namedview
     pagecolor="#ffffff"
     bordercolor="#666666"
     borderopacity="1"
     objecttolerance="10"
     gridtolerance="10"
     guidetolerance="10"
     inkscape:pageopacity="0"
     inkscape:pageshadow="2"
     inkscape:window-width="1667"
     inkscape:window-height="959"
     id="namedview12"
     showgrid="false"
     inkscape:zoom="0.71809782"
     inkscape:cx="393.31835"
     inkscape:cy="443.54121"
     inkscape:window-x="657"
     inkscape:window-y="298"
     inkscape:window-maximized="0"
     inkscape:current-layer="g18"
     inkscape:document-rotation="0" /><g
     id="g18"
     inkscape:groupmode="layer"
     inkscape:label="ink_ext_XXXXXX"
     transform="matrix(1.3333333,0,0,-1.3333333,0,831.50667)"><g
       id="g20"
       transform="matrix(0.12701375,0,0,0.12888772,-83.60707,-81.911719)"><path
         d="m 2597.32,3608.44 c -253.8,-163.77 -422.26,-448.39 -422.26,-772.9 0,-324.56 168.56,-609.23 422.46,-772.99 -472.75,119.43 -862.7,404.29 -1087.79,772.94 225.09,368.66 614.93,653.52 1087.59,772.95 z m 2082.91,-772.95 c -225.1,-368.6 -615.14,-653.51 -1087.78,-772.9 253.8,163.72 422.35,448.44 422.35,772.95 0,324.51 -168.46,609.13 -422.26,772.9 472.66,-119.48 862.59,-404.34 1087.69,-772.95 z m -1585.24,283.45 c 156.44,0 283.39,-126.86 283.39,-283.4 0,-156.54 -126.95,-283.4 -283.39,-283.4 -156.65,0 -283.41,126.86 -283.41,283.4 0,156.54 126.76,283.4 283.41,283.4 z m 0,-1368.06 c 804.98,0.29 1503.89,413.42 1840.43,1024.41 20.5,37.35 20.5,83.05 0,120.41 -336.54,611.03 -1035.45,1024.17 -1840.43,1024.46 -805.19,-0.29 -1503.92,-413.48 -1840.43,-1024.46 -20.52,-37.36 -20.52,-83.06 0,-120.41 336.51,-610.94 1035.24,-1024.12 1840.43,-1024.41"
         style="fill:#34aed7;fill-opacity:1;fill-rule:nonzero;stroke:none"
         id="path22" /></g></g></svg>
