<?xml version="1.0" encoding="UTF-8" standalone="no"?>
<svg
   xmlns:dc="http://purl.org/dc/elements/1.1/"
   xmlns:cc="http://creativecommons.org/ns#"
   xmlns:rdf="http://www.w3.org/1999/02/22-rdf-syntax-ns#"
   xmlns:svg="http://www.w3.org/2000/svg"
   xmlns="http://www.w3.org/2000/svg"
   xmlns:sodipodi="http://sodipodi.sourceforge.net/DTD/sodipodi-0.dtd"
   xmlns:inkscape="http://www.inkscape.org/namespaces/inkscape"
   version="1.1"
   id="svg10"
   xml:space="preserve"
   width="831.50665"
   height="831.50665"
   viewBox="0 0 831.50665 831.50665"
   sodipodi:docname="142629.svg"
   inkscape:version="1.0.1 (c497b03c, 2020-09-10)"><metadata
     id="metadata16"><rdf:RDF><cc:Work
         rdf:about=""><dc:format>image/svg+xml</dc:format><dc:type
           rdf:resource="http://purl.org/dc/dcmitype/StillImage" /><dc:title></dc:title></cc:Work></rdf:RDF></metadata><defs
     id="defs14" /><sodipodi:namedview
     pagecolor="#ffffff"
     bordercolor="#666666"
     borderopacity="1"
     objecttolerance="10"
     gridtolerance="10"
     guidetolerance="10"
     inkscape:pageopacity="0"
     inkscape:pageshadow="2"
     inkscape:window-width="844"
     inkscape:window-height="480"
     id="namedview12"
     showgrid="false"
     inkscape:zoom="1.2122573"
     inkscape:cx="415.75333"
     inkscape:cy="415.75333"
     inkscape:window-x="528"
     inkscape:window-y="376"
     inkscape:window-maximized="0"
     inkscape:current-layer="g18" /><g
     id="g18"
     inkscape:groupmode="layer"
     inkscape:label="ink_ext_XXXXXX"
     transform="matrix(1.3333333,0,0,-1.3333333,0,831.50667)"><g
       id="g20"
       transform="scale(0.1)"><path
         d="m 4197.15,3264.93 c -52.54,321.66 -99.47,1100.39 -109.25,1161.38 -9.78,60.98 -164.36,391.72 -183.75,476.89 -39.85,175.05 -92.12,264.35 -132.46,355.78 -145.85,330.54 -468.68,157.18 -203.18,-444.4 39.13,-88.66 50.39,-392.27 96.14,-473.47 45.74,-81.2 -29.65,-427.23 -48.54,-501.47 -100.11,283.55 -129.79,614.85 -189.11,723.2 -110.55,201.91 -159.76,347.56 -225.34,506.7 -70.38,170.82 -117.88,368.55 -179.61,438.24 -159.4,179.92 -411.38,20.27 -234.29,-367 82.94,-181.37 198.39,-507.83 242.5,-720.47 44.59,-214.94 158.28,-452.91 103.76,-605.05 -41.56,116.07 -133.04,480.78 -131.41,520.63 1.62,39.85 -205.99,441.08 -254.93,531.73 -48.94,90.64 -109.45,306.37 -152.93,387.52 -133.41,248.97 -444.65,79.17 -199.77,-392.24 68.78,-132.41 128.97,-363.42 190.65,-583.51 49.67,-177.21 23.2,-161.67 137.09,-684.46 8.93,-40.99 -94.54,-109.89 -120.34,-101.77 -25.82,8.11 -196.74,304 -212.89,401.79 -16.16,97.79 -131.07,120.84 -252.65,379.4 -28.78,61.2 -189.18,324.53 -253.14,350.1 -63.95,25.56 -333.27,-9.6 -27.57,-503.98 47.72,-77.18 131.73,-313.02 170.6,-373.23 38.87,-60.22 79.62,-326.08 173.85,-466.97 33.44,-49.99 -123.09,-1402.38 199.05,-1843.77 95.79,-131.26 0,-1000 0,-1000 h 1371.83 c 0,0 -61.54,784.06 0,1000 61.54,215.94 494.17,693.23 519.02,772.28 24.86,79.06 276.74,596.78 297.95,692.56 21.21,95.79 -77.4,242.62 105.88,528 103.49,161.15 -339.24,189.08 -497.16,-164.41"
         style="fill:#34aed7;fill-opacity:1;fill-rule:nonzero;stroke:none"
         id="path22" /></g></g></svg>
