<?xml version="1.0" encoding="UTF-8" standalone="no"?>
<svg
   xmlns:dc="http://purl.org/dc/elements/1.1/"
   xmlns:cc="http://creativecommons.org/ns#"
   xmlns:rdf="http://www.w3.org/1999/02/22-rdf-syntax-ns#"
   xmlns:svg="http://www.w3.org/2000/svg"
   xmlns="http://www.w3.org/2000/svg"
   xmlns:sodipodi="http://sodipodi.sourceforge.net/DTD/sodipodi-0.dtd"
   xmlns:inkscape="http://www.inkscape.org/namespaces/inkscape"
   version="1.1"
   id="svg10"
   xml:space="preserve"
   width="831.50665"
   height="831.50665"
   viewBox="0 0 831.50665 831.50665"
   sodipodi:docname="headache.svg"
   inkscape:version="1.0.1 (c497b03c, 2020-09-10)"><metadata
     id="metadata16"><rdf:RDF><cc:Work
         rdf:about=""><dc:format>image/svg+xml</dc:format><dc:type
           rdf:resource="http://purl.org/dc/dcmitype/StillImage" /><dc:title /></cc:Work></rdf:RDF></metadata><defs
     id="defs14" /><sodipodi:namedview
     pagecolor="#ffffff"
     bordercolor="#666666"
     borderopacity="1"
     objecttolerance="10"
     gridtolerance="10"
     guidetolerance="10"
     inkscape:pageopacity="0"
     inkscape:pageshadow="2"
     inkscape:window-width="1368"
     inkscape:window-height="796"
     id="namedview12"
     showgrid="false"
     inkscape:zoom="0.51416746"
     inkscape:cx="163.70643"
     inkscape:cy="444.51748"
     inkscape:window-x="1016"
     inkscape:window-y="420"
     inkscape:window-maximized="0"
     inkscape:current-layer="g18"
     inkscape:document-rotation="0" /><g
     id="g18"
     inkscape:groupmode="layer"
     inkscape:label="ink_ext_XXXXXX"
     transform="matrix(1.3333333,0,0,-1.3333333,0,831.50667)"><g
       id="g20"
       transform="matrix(0.25198357,0,0,0.25198357,-392.01341,-843.23898)"><path
         d="m 3920.52,3410.65 -222.46,414.6 c -157.42,297.61 -268.75,369.03 -383.69,354.14 -133.49,-17.29 -177.05,-52.09 -277.05,-152.1 l -385.64,15.58 -214.26,401.13 c -25,50 -80.47,148.19 -168.65,110.39 -116.7,-50 -75.1,-160.39 -50.1,-235.39 l 279.98,-601.03 c 28.81,-29.26 67.09,-47.37 107.71,-51.13 l 517.39,-72.01 248.14,-544.92 -230.47,-497.62 c -39.55,-72.89 -35.64,-189.54 -33.3,-222.89 4.3,-58.74 49.9,-239.55 74.9,-379.15 l 96,-398.5 c 17.48,-47.21 25.88,-106.29 135.65,-89 96.87,15.23 75.97,137.6 75.97,137.6 l -7.52,666.55 c 0,0 412.6,527.04 474.9,668.75 87.5,208.35 -37.5,475 -37.5,475 z m -1892.28,1658.4 -19.43,-29.06 -63.77,-95.61 -363.87,159.81 433.4,-371.96 68.06,112.5 332.04,-175.35 z m 543.65,-653.82 c 31.45,-181.49 204.2,-302.98 385.74,-271.38 181.55,31.53 303.03,204.29 271.59,385.99 -31.64,181.53 -204.69,303.03 -386.14,271.42 -181.44,-31.68 -302.93,-204.38 -271.19,-386.03 z m -271.48,809.42 283.88,-353.6 -236.32,628.27 -35.45,-23 -116.41,-75.39 -326.37,351.75 301.27,-619.81 129.4,91.78"
         style="fill:#34aed7;fill-opacity:1;fill-rule:nonzero;stroke:none"
         id="path22" /></g></g></svg>
