<?xml version="1.0" encoding="UTF-8" standalone="no"?>
<svg
   xmlns:dc="http://purl.org/dc/elements/1.1/"
   xmlns:cc="http://creativecommons.org/ns#"
   xmlns:rdf="http://www.w3.org/1999/02/22-rdf-syntax-ns#"
   xmlns:svg="http://www.w3.org/2000/svg"
   xmlns="http://www.w3.org/2000/svg"
   xmlns:sodipodi="http://sodipodi.sourceforge.net/DTD/sodipodi-0.dtd"
   xmlns:inkscape="http://www.inkscape.org/namespaces/inkscape"
   version="1.1"
   id="svg10"
   xml:space="preserve"
   width="831.50665"
   height="831.50665"
   viewBox="0 0 831.50665 831.50665"
   sodipodi:docname="143165.svg"
   inkscape:version="1.0.1 (c497b03c, 2020-09-10)"><metadata
     id="metadata16"><rdf:RDF><cc:Work
         rdf:about=""><dc:format>image/svg+xml</dc:format><dc:type
           rdf:resource="http://purl.org/dc/dcmitype/StillImage" /><dc:title></dc:title></cc:Work></rdf:RDF></metadata><defs
     id="defs14" /><sodipodi:namedview
     pagecolor="#ffffff"
     bordercolor="#666666"
     borderopacity="1"
     objecttolerance="10"
     gridtolerance="10"
     guidetolerance="10"
     inkscape:pageopacity="0"
     inkscape:pageshadow="2"
     inkscape:window-width="1438"
     inkscape:window-height="1046"
     id="namedview12"
     showgrid="false"
     inkscape:zoom="1.2122573"
     inkscape:cx="415.75333"
     inkscape:cy="415.75333"
     inkscape:window-x="640"
     inkscape:window-y="160"
     inkscape:window-maximized="0"
     inkscape:current-layer="g18" /><g
     id="g18"
     inkscape:groupmode="layer"
     inkscape:label="ink_ext_XXXXXX"
     transform="matrix(1.3333333,0,0,-1.3333333,0,831.50667)"><g
       id="g20"
       transform="scale(0.1)"><path
         d="m 3612.43,2691.47 c 0,0 1186.34,531.04 1534.03,1437.45 191.79,500.71 -28.29,1074.73 -491.66,1281.97 -375.02,167.96 -794.35,44.04 -1042.37,-274.66 -248.04,318.7 -667.63,442.62 -1042.74,274.66 C 2106.42,5203.65 1886.25,4629.63 2078.38,4128.92 2425.81,3222.51 3612.43,2691.47 3612.43,2691.47 Z M 4847.64,1020.93 H 3631.59 c -60.13,-0.7 -90.62,-7.99 -104.94,-7.12 -41.31,-8.44 -262.09,56.69 -1407.31,682.29 l -11.25,5.63 c -73.92,31.55 -141.85,51.07 -202.94,63.99 v 823.26 c 323.87,-0.7 525.32,-4.57 668.4,-22.5 161.02,-20.82 249,-52.72 398.15,-128.05 l 1048.01,-608.82 c 44.82,-25.93 69.61,-72.51 69.79,-121.28 0,-23.92 -5.98,-47.73 -18.99,-70.41 -21.62,-37 -57.57,-59.41 -96.68,-66.53 h -49.74 c -15.38,2.81 -30.59,7.21 -45.27,15.73 l -720.18,418.45 c -64.42,37.53 -146.86,15.64 -184.3,-48.78 -37.62,-64.42 -15.82,-147.13 48.86,-184.57 h -0.17 l 720.17,-418.54 c 42.1,-24.43 87.2,-39.81 132.81,-48.07 3.87,-0.97 7.74,-1.67 11.69,-2.28 20.39,-3.08 40.78,-5.11 61.17,-5.11 h 0.52 c 16.8,0 33.49,1.24 50.11,3.26 h 848.14 c 77.16,-0.27 139.92,-63.02 139.92,-140.36 0,-77.17 -62.76,-140.02 -139.92,-140.19 z m 0,550.46 h -512.75 c 15.99,44.82 24.61,91.06 24.51,136.94 0.18,141.06 -73.29,278.96 -204.34,354.99 l -1051.08,610.74 -6.33,3.52 c -161.46,83.24 -301.02,134.21 -490.87,156.89 -168.04,20.48 -375.64,23.72 -701.63,24.51 v 62.41 c 0,35.5 -14.42,70.22 -39.55,95.36 -25.05,25.05 -59.85,39.64 -95.54,39.64 h -652.67 c -74.62,0 -135.003,-60.38 -135.003,-135 0,-74.62 60.383,-135 135.003,-135 h 517.67 V 1689.43 h -517.67 c -74.62,0 -135.003,-60.47 -135.003,-135.09 0,-74.62 60.383,-135.17 135.003,-135.17 v 0.17 h 652.67 c 35.69,0 70.49,14.32 95.54,39.46 9.67,9.67 17.22,21.1 23.47,33.14 33.22,-8.88 68.37,-19.95 106.78,-35.95 1153.13,-620.51 1344.99,-703.65 1530.8,-712.092 56.42,0.973 78.65,7.743 104.94,7.122 l 1216.05,-0.168 c 226.49,0.168 409.83,183.679 410.01,410.268 -0.18,226.49 -183.52,410 -410.01,410.27"
         style="fill:#34aed7;fill-opacity:1;fill-rule:nonzero;stroke:none"
         id="path22" /></g></g></svg>
