<?xml version="1.0" encoding="UTF-8" standalone="no"?>
<svg
   xmlns:dc="http://purl.org/dc/elements/1.1/"
   xmlns:cc="http://creativecommons.org/ns#"
   xmlns:rdf="http://www.w3.org/1999/02/22-rdf-syntax-ns#"
   xmlns:svg="http://www.w3.org/2000/svg"
   xmlns="http://www.w3.org/2000/svg"
   xmlns:sodipodi="http://sodipodi.sourceforge.net/DTD/sodipodi-0.dtd"
   xmlns:inkscape="http://www.inkscape.org/namespaces/inkscape"
   version="1.1"
   id="svg17"
   xml:space="preserve"
   width="831.50665"
   height="831.50665"
   viewBox="0 0 831.50665 831.50665"
   sodipodi:docname="lung.svg"
   inkscape:version="1.0.1 (c497b03c, 2020-09-10)"><metadata
     id="metadata23"><rdf:RDF><cc:Work
         rdf:about=""><dc:format>image/svg+xml</dc:format><dc:type
           rdf:resource="http://purl.org/dc/dcmitype/StillImage" /><dc:title /></cc:Work></rdf:RDF></metadata><defs
     id="defs21" /><sodipodi:namedview
     pagecolor="#ffffff"
     bordercolor="#666666"
     borderopacity="1"
     objecttolerance="10"
     gridtolerance="10"
     guidetolerance="10"
     inkscape:pageopacity="0"
     inkscape:pageshadow="2"
     inkscape:window-width="1210"
     inkscape:window-height="735"
     id="namedview19"
     showgrid="false"
     inkscape:zoom="0.375351"
     inkscape:cx="409.93067"
     inkscape:cy="529.24646"
     inkscape:window-x="821"
     inkscape:window-y="216"
     inkscape:window-maximized="0"
     inkscape:current-layer="g25"
     inkscape:document-rotation="0" /><g
     id="g25"
     inkscape:groupmode="layer"
     inkscape:label="ink_ext_XXXXXX"
     transform="matrix(1.3333333,0,0,-1.3333333,0,831.50667)"><g
       id="g27"
       transform="matrix(0.17047514,0,0,0.18156752,-238.22122,-237.39261)"><path
         d="m 4678,1944.92 c -45.85,-78.37 -105.66,-119.97 -188.33,-131.01 -29.69,-3.95 -61.72,-1.46 -98.19,7.52 -50.83,12.6 -102.54,35.74 -157.28,60.26 -47.26,21.14 -96.09,42.96 -146.29,58.49 -87.69,27.1 -183,49.37 -267.04,69.04 l -38.47,8.99 c -38.24,9.03 -127.1,39.45 -127.1,126.71 v 1473.39 c 0,206.34 128.85,350.44 313.33,350.44 299.65,0 543.06,-408.99 639.64,-650.64 105.91,-265.14 257.38,-1052.2 69.73,-1373.19 z m -1856.4,200 c 0,-87.31 -88.86,-117.68 -127.05,-126.71 l -39.06,-9.13 c -83.89,-19.63 -179,-41.85 -266.5,-68.9 -50.15,-15.53 -98.98,-37.35 -146.14,-58.45 -54.79,-24.56 -106.6,-47.7 -157.43,-60.3 -36.52,-9.03 -68.6,-11.62 -98.24,-7.52 -82.62,11.04 -142.43,52.64 -188.23,131.01 -187.7,321.09 -36.23,1108.05 69.73,1373.19 96.53,241.65 339.89,650.64 639.59,650.64 184.48,0 313.33,-144.1 313.33,-350.44 z m 1972.42,1247.41 c -51.81,129.64 -335.16,776.42 -825.39,776.42 -292.63,0 -513.33,-236.63 -513.33,-550.44 v -161.84 l -116.85,116.83 v 733.39 h -200 V 3573.3 L 3021.6,3456.47 v 161.84 c 0,313.81 -220.7,550.44 -513.33,550.44 -490.33,0 -773.53,-646.78 -825.34,-776.42 -86.08,-215.53 -310.54,-1114.01 -56.64,-1548.34 76.17,-130.32 191.8,-209.28 334.33,-228.32 18.11,-2.39 36.33,-3.61 54.88,-3.61 37.79,0 76.81,5.03 117.97,15.23 68.21,16.9 130.66,44.82 191.06,71.88 43.66,19.53 84.92,37.98 123.54,49.9 80.81,25 168.31,45.46 252.93,65.23 l 39.45,9.28 c 173.44,40.92 281.15,164.06 281.15,321.34 v 1028.75 l 216.85,216.8 216.85,-216.8 V 2144.92 c 0,-157.28 107.71,-280.42 281.15,-321.34 l 38.91,-9.13 c 84.77,-19.83 172.47,-40.33 253.52,-65.38 38.62,-11.92 79.93,-30.42 123.63,-49.95 60.35,-27.01 122.81,-54.93 190.92,-71.83 41.21,-10.2 80.23,-15.23 118.02,-15.23 18.5,0 36.72,1.17 54.74,3.61 142.62,19.04 258.25,98 334.47,228.32 253.81,434.18 29.44,1332.76 -56.64,1548.34"
         style="fill:#34aed7;fill-opacity:1;fill-rule:nonzero;stroke:none"
         id="path29" /></g></g></svg>
