<?xml version="1.0" encoding="UTF-8" standalone="no"?>
<svg
   xmlns:dc="http://purl.org/dc/elements/1.1/"
   xmlns:cc="http://creativecommons.org/ns#"
   xmlns:rdf="http://www.w3.org/1999/02/22-rdf-syntax-ns#"
   xmlns:svg="http://www.w3.org/2000/svg"
   xmlns="http://www.w3.org/2000/svg"
   xmlns:sodipodi="http://sodipodi.sourceforge.net/DTD/sodipodi-0.dtd"
   xmlns:inkscape="http://www.inkscape.org/namespaces/inkscape"
   version="1.1"
   id="svg10"
   xml:space="preserve"
   width="831.50665"
   height="831.50665"
   viewBox="0 0 831.50665 831.50665"
   sodipodi:docname="nose.svg"
   inkscape:version="1.0.1 (c497b03c, 2020-09-10)"><metadata
     id="metadata16"><rdf:RDF><cc:Work
         rdf:about=""><dc:format>image/svg+xml</dc:format><dc:type
           rdf:resource="http://purl.org/dc/dcmitype/StillImage" /><dc:title /></cc:Work></rdf:RDF></metadata><defs
     id="defs14" /><sodipodi:namedview
     pagecolor="#ffffff"
     bordercolor="#666666"
     borderopacity="1"
     objecttolerance="10"
     gridtolerance="10"
     guidetolerance="10"
     inkscape:pageopacity="0"
     inkscape:pageshadow="2"
     inkscape:window-width="1913"
     inkscape:window-height="1183"
     id="namedview12"
     showgrid="false"
     inkscape:zoom="1.2122573"
     inkscape:cx="415.75333"
     inkscape:cy="415.75333"
     inkscape:window-x="0"
     inkscape:window-y="25"
     inkscape:window-maximized="0"
     inkscape:current-layer="g18"
     inkscape:document-rotation="0" /><g
     id="g18"
     inkscape:groupmode="layer"
     inkscape:label="ink_ext_XXXXXX"
     transform="matrix(1.3333333,0,0,-1.3333333,0,831.50667)"><g
       id="g20"
       transform="matrix(0.09374408,0,0,0.1,21.800431,0)"><path
         d="m 1634.01,2311.05 c 26.95,8.94 48.83,28.96 60.16,55.03 33.49,77.1 85.15,216.5 150.58,392.97 205.67,554.83 831.64,2243.31 1180.67,2243.31 341.4,0 932.12,-1585.74 1154.49,-2182.72 72.95,-195.8 130.56,-350.44 167.67,-432.86 13.19,-29.24 39.55,-50.39 71,-56.88 245.8,-50.64 417.38,-234.13 417.38,-446.29 0,-253.66 -245.51,-460.06 -547.36,-460.06 -58.79,0 -115.43,10.5 -170.12,25.83 72.07,25.88 118.36,63.28 118.36,105.42 0,78.08 -156.44,141.41 -349.41,141.41 -193.07,0 -349.51,-63.33 -349.51,-141.41 0,-6.25 2.53,-12.16 4.49,-18.21 -126.86,-134.96 -313.48,-212.6 -516.99,-212.6 -208.99,0 -400.49,81.45 -527.45,223.24 0.3,2.54 1.86,4.98 1.86,7.57 0,78.08 -156.45,141.41 -349.41,141.41 -193.07,0 -349.52,-63.33 -349.52,-141.41 0,-49.46 62.8,-92.82 157.62,-118.11 -40.53,-8.11 -81.93,-13.14 -124.02,-13.14 -301.86,0 -547.46,206.4 -547.46,460.06 0,189.55 136.23,357.32 346.97,427.44 z m 200.49,-1087.5 c 188.47,0 365.33,60.94 503.32,172.56 10.06,-1.32 20.21,-2.59 30.56,-3.86 164.36,-170.95 401.47,-268.26 657.04,-268.26 255.46,0 492.57,97.31 657.03,268.26 31.73,3.91 62.5,8.11 92.38,12.6 138.28,-115.77 322.66,-181.3 513.77,-181.3 412.11,0 747.36,296.09 747.36,660.06 0,292.19 -213.38,544.73 -525.1,629.78 -34.66,83.79 -83.88,215.92 -143.55,376.03 -435.94,1170.31 -898.63,2312.94 -1341.89,2312.94 -406.45,0 -824.91,-908.3 -1368.17,-2373.78 -54.2,-146.14 -98.83,-266.41 -130.17,-343.8 -265.04,-105.81 -440.04,-342.28 -440.04,-601.17 0,-363.97 335.35,-660.06 747.46,-660.06"
         style="fill:#34aed7;fill-opacity:1;fill-rule:nonzero;stroke:none"
         id="path22" /></g></g></svg>
