<?xml version="1.0" encoding="UTF-8" standalone="no"?>
<svg
   xmlns:dc="http://purl.org/dc/elements/1.1/"
   xmlns:cc="http://creativecommons.org/ns#"
   xmlns:rdf="http://www.w3.org/1999/02/22-rdf-syntax-ns#"
   xmlns:svg="http://www.w3.org/2000/svg"
   xmlns="http://www.w3.org/2000/svg"
   xmlns:sodipodi="http://sodipodi.sourceforge.net/DTD/sodipodi-0.dtd"
   xmlns:inkscape="http://www.inkscape.org/namespaces/inkscape"
   version="1.1"
   id="svg10"
   xml:space="preserve"
   width="831.50134"
   height="831.50269"
   viewBox="0 0 831.50134 831.50269"
   sodipodi:docname="stomach.svg"
   inkscape:version="1.0.1 (c497b03c, 2020-09-10)"><metadata
     id="metadata16"><rdf:RDF><cc:Work
         rdf:about=""><dc:format>image/svg+xml</dc:format><dc:type
           rdf:resource="http://purl.org/dc/dcmitype/StillImage" /><dc:title></dc:title></cc:Work></rdf:RDF></metadata><defs
     id="defs14"><clipPath
       clipPathUnits="userSpaceOnUse"
       id="clipPath26"><path
         d="M 0,623.627 H 623.626 V 0 H 0 Z"
         id="path24" /></clipPath></defs><sodipodi:namedview
     pagecolor="#ffffff"
     bordercolor="#666666"
     borderopacity="1"
     objecttolerance="10"
     gridtolerance="10"
     guidetolerance="10"
     inkscape:pageopacity="0"
     inkscape:pageshadow="2"
     inkscape:window-width="844"
     inkscape:window-height="480"
     id="namedview12"
     showgrid="false"
     inkscape:zoom="1.2122631"
     inkscape:cx="415.75067"
     inkscape:cy="415.75134"
     inkscape:window-x="0"
     inkscape:window-y="25"
     inkscape:window-maximized="0"
     inkscape:current-layer="g18" /><g
     id="g18"
     inkscape:groupmode="layer"
     inkscape:label="187484"
     transform="matrix(1.3333333,0,0,-1.3333333,0,831.50267)"><g
       id="g20"><g
         id="g22"
         clip-path="url(#clipPath26)"><g
           id="g28"
           transform="translate(-79.8674,111.4515)"><path
             d="m 0,0 c -71.221,90.98 128.295,274.285 -43.968,318.814 -3.837,3.888 -11.508,4.456 -17.171,2.409 -8.762,44.983 -42.296,73.361 -67.483,83.904 -128.151,53.645 -195.774,-48.669 -209.26,-67.502 -13.484,-18.833 -16.125,-53.872 -9.68,-73.042 1.904,-5.664 5.962,-18.926 5.898,-23.631 0,-0.001 -0.001,-0.001 -0.001,-0.003 -5.596,-0.417 -12.717,-1.023 -17.837,0.158 5.251,-3.376 11.694,-6.012 17.073,-7.054 -1.26,-7.79 -4.188,-14.941 -7.618,-21.44 -1.525,7.522 -3.997,13.71 -9.338,15.407 -29.067,9.231 -42.952,20.973 -59.671,16.492 -11.168,-2.993 -63.55,-32.236 -90.014,-49.349 v -64.746 c 40.1,7.645 56.174,25.001 85.107,41.847 0.721,-1.3 3.209,-3.62 5.162,-5.337 -18.883,-0.58 -21.172,-10.153 -18.267,-11.241 2.905,-1.088 16.453,-5.671 23.308,-7.568 6.855,-1.897 13.509,8.1 17.607,19.278 8.715,-3.265 16.173,-4.627 23.406,7.391 -3.7,-14.058 7.331,-24.366 13.308,-12.685 1.592,3.113 3.372,5.749 5.098,8.188 1.617,-0.539 3.36,-1.015 5.358,-1.369 10.313,-1.831 2.184,-15.379 0.833,-17.468 -2.907,-4.49 5.32,-9.79 12.923,-15.729 l -34.857,-20.125 -9.998,17.313 c -1.386,2.393 -4.458,3.233 -6.831,1.826 -2.392,-1.377 -3.212,-4.433 -1.831,-6.826 l 9.998,-17.314 -77.944,-45 -9.998,17.314 c -1.387,2.393 -4.458,3.223 -6.831,1.826 -2.393,-1.377 -3.213,-4.433 -1.831,-6.826 l 9.998,-17.315 -31.815,-18.368 10,-17.325 31.818,18.37 9.999,-17.315 c 0.928,-1.602 2.607,-2.5 4.336,-2.5 0.849,0 1.709,0.215 2.495,0.674 2.393,1.377 3.213,4.433 1.831,6.826 l -9.999,17.316 22.272,12.859 v -73.819 h 40 v 96.913 l 15.672,9.047 9.999,-17.316 c 0.928,-1.602 2.608,-2.5 4.336,-2.5 0.85,0 1.709,0.215 2.495,0.674 2.393,1.377 3.213,4.433 1.831,6.826 l -9.999,17.317 35.491,20.491 c -0.308,-0.853 -0.775,-1.712 -1.436,-2.58 -1.806,-2.367 -18.435,-12.38 2.089,-25.831 11.8,-7.734 -0.404,-44.997 74.098,-29.638 15.157,3.125 27.122,-51.822 31.139,-73.403 h 165.438 c -19.998,41.386 -47.5,113.748 -47.5,147.158 0,38.303 33.73,82.952 41.061,149.675 0.045,0.407 0.035,0.786 0.076,1.19 4.127,-1.018 9.433,0.168 15.657,1.796 C -15.484,225.622 -192.442,96.865 0,0"
             style="fill:#34aed7;fill-opacity:1;fill-rule:evenodd;stroke:none"
             id="path30" /></g><g
           id="g32"
           transform="translate(302.1785,554.7425)"><path
             d="m 0,0 c -4.569,-31.984 -1.871,-89.237 31.984,-100.522 19.191,-6.397 31.985,92.297 127.937,74.934 95.953,-17.362 122.745,-91.119 109.661,-171.801 -27.415,-169.059 -121.54,-279.633 -209.269,-279.633 -145.403,0 -158.094,53.002 -217.493,102.349 -24.931,20.712 -7.311,-64.883 0,-110.349 h -75.901 c -3.655,49.346 -37.415,210.871 55.797,216.354 93.211,5.482 132.506,-63.969 164.49,-42.95 31.984,21.017 59.399,92.297 34.726,123.367 C -2.742,-157.18 -71.873,-113.441 -42.95,0 Z"
             style="fill:#34aed7;fill-opacity:1;fill-rule:evenodd;stroke:none"
             id="path34" /></g></g></g></g></svg>
