<?xml version="1.0" encoding="UTF-8" standalone="no"?>
<svg
   xmlns:dc="http://purl.org/dc/elements/1.1/"
   xmlns:cc="http://creativecommons.org/ns#"
   xmlns:rdf="http://www.w3.org/1999/02/22-rdf-syntax-ns#"
   xmlns:svg="http://www.w3.org/2000/svg"
   xmlns="http://www.w3.org/2000/svg"
   xmlns:sodipodi="http://sodipodi.sourceforge.net/DTD/sodipodi-0.dtd"
   xmlns:inkscape="http://www.inkscape.org/namespaces/inkscape"
   version="1.1"
   id="svg10"
   xml:space="preserve"
   width="831.50269"
   height="831.50134"
   viewBox="0 0 831.50269 831.50134"
   sodipodi:docname="throat.svg"
   inkscape:version="1.0.1 (c497b03c, 2020-09-10)"><metadata
     id="metadata16"><rdf:RDF><cc:Work
         rdf:about=""><dc:format>image/svg+xml</dc:format><dc:type
           rdf:resource="http://purl.org/dc/dcmitype/StillImage" /><dc:title></dc:title></cc:Work></rdf:RDF></metadata><defs
     id="defs14"><clipPath
       clipPathUnits="userSpaceOnUse"
       id="clipPath26"><path
         d="M 0,623.626 H 623.627 V 0 H 0 Z"
         id="path24" /></clipPath></defs><sodipodi:namedview
     pagecolor="#ffffff"
     bordercolor="#666666"
     borderopacity="1"
     objecttolerance="10"
     gridtolerance="10"
     guidetolerance="10"
     inkscape:pageopacity="0"
     inkscape:pageshadow="2"
     inkscape:window-width="844"
     inkscape:window-height="480"
     id="namedview12"
     showgrid="false"
     inkscape:zoom="1.212265"
     inkscape:cx="415.75134"
     inkscape:cy="415.75067"
     inkscape:window-x="0"
     inkscape:window-y="25"
     inkscape:window-maximized="0"
     inkscape:current-layer="g18" /><g
     id="g18"
     inkscape:groupmode="layer"
     inkscape:label="187736"
     transform="matrix(1.3333333,0,0,-1.3333333,0,831.50133)"><g
       id="g20"><g
         id="g22"
         clip-path="url(#clipPath26)"><g
           id="g28"
           transform="translate(396.7172,89.9827)"><path
             d="m 0,0 -21.099,-3.407 10.493,-18.62 -20.49,6.086 1.373,-21.329 -15.816,14.373 -8.017,-19.814 -8.015,19.814 -15.822,-14.373 1.375,21.329 -20.489,-6.086 10.492,18.62 -21.098,3.407 17.532,12.224 -17.532,12.224 21.098,3.406 -10.492,18.621 20.489,-6.086 -1.375,21.329 15.822,-14.372 8.015,19.812 8.017,-19.812 15.816,14.372 -1.373,-21.329 20.49,6.086 L -21.099,27.854 0,24.448 -17.532,12.224 Z m 0.79,469.963 c -36.623,12.341 -76.515,17.562 -114.103,8.571 -78.594,-18.801 -141.141,-106.261 -132.486,-186.264 1.53,-14.145 4.971,-28.475 2.154,-42.421 -4.709,-23.334 -25.278,-39.462 -43.54,-54.731 -2.251,-1.882 -4.569,-3.892 -5.671,-6.61 -3.593,-8.847 7.331,-16.632 16.641,-18.753 9.312,-2.121 20.93,-4.26 23.644,-13.416 2.496,-8.427 -4.802,-17.536 -2.104,-25.9 4.944,-15.328 55.158,-8.104 63.094,-22.12 5.6,-9.897 -18.85,-19.112 -30.048,-21.102 -4.551,-0.809 -9.3,-0.584 -13.699,-2.006 -4.4,-1.421 -8.576,-5.239 -8.279,-9.853 0.442,-6.931 9.358,-9.298 14.217,-14.259 8.042,-8.21 4.359,-23.42 12.497,-31.533 5.171,-5.156 13.29,-5.56 20.589,-5.411 29.414,0.601 50.564,2.47 78.848,10.559 5.525,-26.488 5.076,-54.204 -1.302,-80.499 70.415,-8.492 143.388,5.657 205.526,39.853 -8.002,29.437 -14.655,59.241 -19.927,89.287 -3.383,19.261 -6.206,38.879 -4.113,58.322 3.279,30.46 18.277,58.174 29.535,86.666 13.039,33.002 21.303,68.41 19.314,103.838 -1.988,35.429 -14.898,70.934 -39.69,96.323 C 52.54,448.318 27.032,461.119 0.79,469.963"
             style="fill:#34aed7;fill-opacity:1;fill-rule:nonzero;stroke:none"
             id="path30" /></g><g
           id="g32"
           transform="translate(353.8363,106.4539)"><path
             d="m 0,0 c -0.445,-0.502 -1.049,-0.941 -1.878,-1.22 -0.634,-0.213 -1.196,-0.294 -1.709,-0.297 -0.652,-0.004 -1.211,0.131 -1.681,0.351 -0.607,0.283 -1.07,0.692 -1.406,1.091 -0.337,0.398 -0.549,0.776 -0.658,1.003 -0.064,0.129 -0.099,0.213 -0.099,0.213 l 0.208,0.062 2.593,0.769 3.556,1.054 2.293,0.68 C 1.219,3.706 1.38,1.547 0,0 m -3.44,-17.218 h -1.342 -1.547 -3.4 -1.769 -3.195 -1.538 -1.786 c -0.885,0 -1.545,0.82 -1.355,1.686 l 0.077,0.338 0.71,3.209 0.629,2.844 0.377,1.707 0.285,1.289 0.392,1.767 0.086,0.389 h 0.669 c 0.031,-0.12 0.063,-0.25 0.098,-0.389 0.133,-0.523 0.293,-1.154 0.448,-1.767 0.036,-0.139 0.07,-0.275 0.102,-0.409 0.14,-0.547 0.266,-1.045 0.353,-1.398 0.057,-0.23 0.101,-0.401 0.12,-0.475 0.006,-0.035 0.01,-0.052 0.006,-0.042 -0.001,0.007 0.004,0.034 0.011,0.061 0.023,0.094 0.093,0.305 0.195,0.596 0.154,0.434 0.378,1.034 0.618,1.667 0.021,0.055 0.044,0.112 0.063,0.169 0.154,0.403 0.31,0.811 0.456,1.187 0.054,0.143 0.107,0.279 0.157,0.411 0.055,0.138 0.104,0.268 0.151,0.389 h 0.233 1.21 0.071 0.357 0.634 0.226 0.049 0.21 0.65 0.297 0.106 1.231 c 0.002,0 0.002,-0.001 0.002,-0.002 0.048,-0.122 0.098,-0.25 0.151,-0.387 0.054,-0.145 0.113,-0.297 0.174,-0.455 0.118,-0.308 0.245,-0.636 0.371,-0.964 0.043,-0.116 0.087,-0.233 0.13,-0.348 0.205,-0.539 0.398,-1.054 0.545,-1.465 0.064,-0.176 0.118,-0.325 0.161,-0.454 0.078,-0.228 0.125,-0.383 0.118,-0.405 -0.007,-0.02 0.014,0.072 0.054,0.233 0.03,0.113 0.067,0.266 0.113,0.446 0.092,0.376 0.216,0.867 0.352,1.396 0.019,0.081 0.04,0.165 0.063,0.249 0.152,0.613 0.313,1.244 0.447,1.767 0.035,0.139 0.067,0.269 0.1,0.389 h 0.673 l 0.084,-0.389 0.392,-1.767 0.234,-1.059 0.375,-1.69 0.618,-2.793 0.709,-3.21 0.141,-0.635 c 0.191,-0.866 -0.468,-1.686 -1.352,-1.686 m -17.836,17.05 c -1.559,1.554 -1.409,3.874 -1.409,3.874 l 2.635,-0.782 3.554,-1.053 2.393,-0.709 0.068,-0.021 c 0,0 -0.012,-0.029 -0.029,-0.07 -0.067,-0.154 -0.26,-0.561 -0.617,-1.015 -0.317,-0.403 -0.758,-0.835 -1.351,-1.148 -0.52,-0.273 -1.155,-0.442 -1.916,-0.425 -0.494,0.011 -1.035,0.094 -1.639,0.297 -0.729,0.245 -1.262,0.626 -1.689,1.052 M 18.33,-1.575 c -1.729,0 -3.171,-1.196 -3.569,-2.803 H 7.507 C 7.413,-2.442 7.022,-0.587 6.367,1.144 L 10.38,2.841 9.825,4.154 5.812,2.457 C 5.04,4.097 4.03,5.6 2.827,6.928 l 5.127,5.127 c 1.417,-0.855 3.283,-0.682 4.506,0.541 1.441,1.44 1.441,3.775 0,5.215 -1.44,1.44 -3.773,1.44 -5.215,0 C 6.022,16.588 5.849,14.723 6.704,13.305 L 1.576,8.177 c -1.392,1.264 -2.976,2.316 -4.71,3.102 l 1.635,4.034 -1.319,0.535 -1.64,-4.038 c -1.659,0.599 -3.427,0.959 -5.271,1.048 v 7.255 c 1.607,0.396 2.803,1.838 2.803,3.568 0,2.037 -1.649,3.687 -3.686,3.687 -2.037,0 -3.689,-1.65 -3.689,-3.687 0,-1.73 1.198,-3.171 2.803,-3.568 v -7.255 c -1.936,-0.093 -3.789,-0.486 -5.522,-1.14 l -1.697,4.013 -1.312,-0.554 1.696,-4.014 c -1.64,-0.773 -3.141,-1.781 -4.469,-2.986 l -5.129,5.128 c 0.857,1.418 0.682,3.283 -0.541,4.506 -1.438,1.44 -3.773,1.44 -5.215,0 -1.439,-1.44 -1.439,-3.775 0,-5.215 1.223,-1.223 3.088,-1.396 4.507,-0.541 l 5.127,-5.127 c -1.262,-1.393 -2.314,-2.977 -3.1,-4.711 l -4.034,1.635 -0.536,-1.32 4.039,-1.638 c -0.599,-1.66 -0.96,-3.429 -1.049,-5.272 h -7.254 c -0.397,1.607 -1.837,2.803 -3.57,2.803 -2.035,0 -3.687,-1.651 -3.687,-3.687 0,-2.036 1.652,-3.687 3.687,-3.687 1.733,0 3.173,1.195 3.57,2.804 h 7.254 c 0.094,-1.938 0.487,-3.792 1.14,-5.523 l -4.012,-1.697 0.553,-1.313 4.016,1.697 c 0.771,-1.641 1.778,-3.144 2.983,-4.47 l -5.127,-5.128 c -1.419,0.854 -3.284,0.682 -4.507,-0.542 -1.439,-1.44 -1.439,-3.775 0,-5.215 1.442,-1.44 3.777,-1.44 5.215,0 1.223,1.224 1.398,3.089 0.541,4.507 l 5.129,5.128 c 1.393,-1.265 2.976,-2.316 4.71,-3.102 l -1.636,-4.033 1.323,-0.536 1.635,4.038 c 1.662,-0.599 3.429,-0.96 5.272,-1.048 v -7.255 c -1.605,-0.397 -2.803,-1.839 -2.803,-3.568 0,-2.037 1.652,-3.688 3.689,-3.688 2.037,0 3.686,1.651 3.686,3.688 0,1.729 -1.196,3.171 -2.803,3.568 v 7.255 c 1.936,0.093 3.791,0.486 5.523,1.14 l 1.696,-4.014 1.313,0.556 -1.697,4.013 c 1.64,0.772 3.143,1.781 4.47,2.986 l 5.128,-5.128 c -0.855,-1.418 -0.682,-3.283 0.541,-4.507 1.442,-1.44 3.775,-1.44 5.215,0 1.441,1.44 1.441,3.775 0,5.215 -1.223,1.224 -3.089,1.396 -4.506,0.542 l -5.127,5.128 c 1.263,1.392 2.316,2.976 3.102,4.71 l 4.034,-1.636 0.533,1.322 -4.037,1.637 c 0.6,1.659 0.958,3.429 1.048,5.273 h 7.254 c 0.398,-1.609 1.84,-2.804 3.569,-2.804 2.037,0 3.689,1.651 3.689,3.687 0,2.036 -1.652,3.687 -3.689,3.687"
             style="fill:#34aed7;fill-opacity:1;fill-rule:nonzero;stroke:none"
             id="path34" /></g></g></g></g></svg>
