<?xml version="1.0" encoding="UTF-8" standalone="no"?>
<svg
   xmlns:dc="http://purl.org/dc/elements/1.1/"
   xmlns:cc="http://creativecommons.org/ns#"
   xmlns:rdf="http://www.w3.org/1999/02/22-rdf-syntax-ns#"
   xmlns:svg="http://www.w3.org/2000/svg"
   xmlns="http://www.w3.org/2000/svg"
   xmlns:sodipodi="http://sodipodi.sourceforge.net/DTD/sodipodi-0.dtd"
   xmlns:inkscape="http://www.inkscape.org/namespaces/inkscape"
   version="1.1"
   id="svg10"
   xml:space="preserve"
   width="831.50665"
   height="831.50665"
   viewBox="0 0 831.50665 831.50665"
   sodipodi:docname="142597.svg"
   inkscape:version="1.0.1 (c497b03c, 2020-09-10)"><metadata
     id="metadata16"><rdf:RDF><cc:Work
         rdf:about=""><dc:format>image/svg+xml</dc:format><dc:type
           rdf:resource="http://purl.org/dc/dcmitype/StillImage" /><dc:title></dc:title></cc:Work></rdf:RDF></metadata><defs
     id="defs14" /><sodipodi:namedview
     pagecolor="#ffffff"
     bordercolor="#666666"
     borderopacity="1"
     objecttolerance="10"
     gridtolerance="10"
     guidetolerance="10"
     inkscape:pageopacity="0"
     inkscape:pageshadow="2"
     inkscape:window-width="844"
     inkscape:window-height="480"
     id="namedview12"
     showgrid="false"
     inkscape:zoom="1.2122573"
     inkscape:cx="415.75333"
     inkscape:cy="415.75333"
     inkscape:window-x="544"
     inkscape:window-y="264"
     inkscape:window-maximized="0"
     inkscape:current-layer="g18" /><g
     id="g18"
     inkscape:groupmode="layer"
     inkscape:label="ink_ext_XXXXXX"
     transform="matrix(1.3333333,0,0,-1.3333333,0,831.50667)"><g
       id="g20"
       transform="scale(0.1)"><path
         d="m 1390.29,3864.77 c -6.93,7.96 -14.26,18.36 -20.57,31.68 -6.78,12.92 -15.6,26.71 -20.56,44.05 -13.48,32.91 -21.12,74.08 -23.74,117.93 -1.87,44 1.06,91.06 10.54,137.07 12.53,69.19 36.75,135.51 62.45,189.24 -45.54,-172.88 -45.2,-372.89 -2.13,-501 4.03,-11.99 9.13,-27.86 14.51,-45.2 -0.03,0.04 -7.47,9.56 -20.5,26.23 z m 3259.17,46.77 c -8.52,49.33 -25.21,99.87 -45.17,148.52 -40.82,96.95 -92.63,187.37 -131.74,254.75 -30.72,51.13 -53.22,88.58 -62.11,103.37 -79.16,290.14 -99.71,434.78 -88.44,637.57 21.48,386.66 -622.95,572.82 -895.03,565.66 -12.64,-0.33 -25.01,-0.37 -37.38,-0.42 -57.81,22.61 -130.04,58.33 -208.74,89.43 -21.57,7.5 -42.89,15.43 -65.86,19.64 -22.21,4.73 -46,7.79 -68.57,3.79 -22.37,-1.74 -44.06,-10.89 -60.38,-22.11 -17.71,-10.54 -29.88,-24.72 -41.14,-37.49 -11.38,-12.56 -18.04,-26.7 -25.79,-37.69 -7.86,-11.01 -11.37,-22.47 -15.94,-30.9 -8.17,-17.31 -12.84,-27.21 -12.84,-27.21 0,0 6.03,9.12 16.57,25.08 9.82,16.2 26.64,37.99 49.35,59.97 12.06,10.27 24.88,21.42 41.04,27.96 15.31,7.47 32.96,12.18 51.22,10.81 17.97,0.73 37.08,-4.47 55.68,-11.43 18.78,-6.21 37.41,-16.34 55.92,-25.91 22.66,-12.93 45.08,-26.68 67.23,-40.49 -177.2,5.13 -321.43,-0.27 -438.77,-160.55 -419.04,66.68 -1502.94,-332.64 -1540.18,-1232.12 -0.33,-3.06 -0.88,-6.05 -1.18,-9.11 -11.28,-97.87 -8.12,-197.25 5.7,-269.49 7.56,-36.11 17.21,-65.16 25.53,-84.75 9.39,-19.04 14.76,-29.92 14.76,-29.92 0,0 -3.9,11.41 -10.71,31.37 -5.66,20.26 -11.32,49.71 -14.09,85.33 -3.48,58.77 2.76,133.71 17.65,209.71 -0.31,-37.79 1.87,-75.32 7.95,-110.22 8.79,-46.12 22.48,-88.16 40.94,-120.65 7.41,-17.1 18.45,-30.4 27.05,-42.65 8.15,-12.63 16.96,-22.2 25.02,-29.4 15.13,-14.92 23.75,-23.44 23.78,-23.46 19.45,-62.72 43.57,-149.59 43.09,-185.58 -3.25,-243.68 -206.68,-431.77 -219.68,-550.36 -9.91,-90.43 41.85,-134.2 148.2,-153.07 100.72,-17.87 16.42,-147.75 8.12,-170.57 -19.49,-53.62 55.24,-94.23 128.34,-115.35 -116.97,-207.94 63.36,-125.09 87.73,-229.06 6.63,-28.29 -59.74,-200.5 89.35,-294.04 93.88,-58.91 334.35,-32.94 628.34,58.3 207.65,64.44 335.94,-872.45 261.32,-938.21 -74.61,-65.76 -672,-622.051 -664,-803.02 h 2472 c 0,421.219 -517.46,1405.29 -601.63,2106.5 21.9,-21.15 45.04,-41.39 68.71,-59.32 61.63,-48.36 123.2,-95.34 145.59,-148.13 12.35,-25.26 15.73,-49.89 15.48,-66.52 -0.31,-17.09 -0.49,-26.86 -0.49,-26.86 0,0 1.74,9.68 4.78,26.63 2.96,16.77 3.69,42.87 -5.12,72.16 -2.66,15.44 -11.69,29.53 -18.63,45.87 -9.3,14.64 -18.59,31.09 -30.66,45.56 -22.9,30.44 -50.7,59.15 -76.89,87.9 -28.37,29.55 -53.18,60.11 -72.52,89.47 34.88,-39.89 78.11,-65.33 110.97,-80.98 38.04,-17.65 64.07,-26.56 64.07,-26.56 0,0 -23.57,14.71 -55.83,39.84 -31.97,25.08 -71.46,63.33 -90.26,109.12 -10.64,25.28 -15.27,52.06 -17.28,77.63 336.5,-166.29 531.07,150 531.07,415.56 0,279.25 186.16,286.41 114.56,465.42 -68.71,171.8 145.13,-3.88 4.27,525.57 25.8,-37.15 51.9,-76.97 75.54,-118.24 24.53,-43.75 45.8,-89.05 59.23,-133.43 6.07,-22.3 10.3,-44.07 11.15,-65.08 0.09,-20.65 -0.9,-40.9 -7.49,-57.96 -3.71,-18.29 -15.18,-31.62 -22.59,-44.77 -10.65,-10.68 -18.74,-21.87 -27.82,-28.26 -18.17,-13.08 -28.55,-20.55 -28.55,-20.55 0,0 11.31,6.21 31.09,17.08 10.04,5.4 19.62,15.65 32.26,25.69 9.43,12.57 23.58,25.9 30.16,45.13 9.52,18.07 13.47,40.07 16.13,63.04 1.88,23.29 0.23,47.53 -3.44,72.46"
         style="fill:#34aed7;fill-opacity:1;fill-rule:nonzero;stroke:none"
         id="path22" /></g></g></svg>
