<?xml version="1.0" encoding="UTF-8"?>
<svg xmlns="http://www.w3.org/2000/svg" xmlns:xlink="http://www.w3.org/1999/xlink" width="48pt" height="48pt" viewBox="0 0 48 48" version="1.1">
<g id="surface12005060">
<rect x="0" y="0" width="48" height="48" style="fill:rgb(100%,100%,100%);fill-opacity:1;stroke:none;"/>
<path style=" stroke:none;fill-rule:nonzero;fill:rgb(24.705882%,31.764706%,70.980392%);fill-opacity:1;" d="M 47.761719 41.160156 C 47.761719 44.804688 44.804688 47.761719 41.160156 47.761719 L 6.839844 47.761719 C 3.195312 47.761719 0.238281 44.804688 0.238281 41.160156 L 0.238281 6.839844 C 0.238281 3.195312 3.195312 0.238281 6.839844 0.238281 L 41.160156 0.238281 C 44.804688 0.238281 47.761719 3.195312 47.761719 6.839844 Z M 47.761719 41.160156 "/>
<path style=" stroke:none;fill-rule:nonzero;fill:rgb(100%,100%,100%);fill-opacity:1;" d="M 37.6875 25.320312 L 33.238281 25.320312 L 33.238281 42.480469 L 26.640625 42.480469 L 26.640625 25.320312 L 22.679688 25.320312 L 22.679688 20.039062 L 26.640625 20.039062 L 26.640625 16.859375 C 26.644531 12.226562 28.566406 9.480469 34.019531 9.480469 L 38.519531 9.480469 L 38.519531 14.761719 L 35.5 14.761719 C 33.378906 14.761719 33.238281 15.550781 33.238281 17.035156 L 33.238281 20.039062 L 38.519531 20.039062 Z M 37.6875 25.320312 "/>
</g>
</svg>
