<?xml version="1.0" encoding="UTF-8"?>
<svg xmlns="http://www.w3.org/2000/svg" xmlns:xlink="http://www.w3.org/1999/xlink" width="48pt" height="48pt" viewBox="0 0 48 48" version="1.1">
<g id="surface11957907">
<path style=" stroke:none;fill-rule:nonzero;fill:rgb(0%,76.470588%,0%);fill-opacity:1;" d="M 9.050781 47.398438 L 38.949219 47.398438 C 43.617188 47.398438 47.398438 43.617188 47.398438 38.949219 L 47.398438 9.050781 C 47.398438 4.382812 43.617188 0.601562 38.949219 0.601562 L 9.050781 0.601562 C 4.382812 0.601562 0.601562 4.382812 0.601562 9.050781 L 0.601562 38.949219 C 0.601562 43.617188 4.382812 47.398438 9.050781 47.398438 Z M 9.050781 47.398438 "/>
<path style=" stroke:none;fill-rule:nonzero;fill:rgb(100%,100%,100%);fill-opacity:1;" d="M 41.046875 21.941406 C 41.046875 14.316406 33.402344 8.113281 24.007812 8.113281 C 14.613281 8.113281 6.96875 14.316406 6.96875 21.941406 C 6.96875 28.777344 13.03125 34.503906 21.21875 35.585938 C 21.773438 35.707031 22.527344 35.953125 22.71875 36.425781 C 22.890625 36.855469 22.832031 37.53125 22.773438 37.964844 C 22.773438 37.964844 22.574219 39.167969 22.53125 39.425781 C 22.457031 39.855469 22.1875 41.109375 24.007812 40.34375 C 25.824219 39.578125 33.820312 34.566406 37.394531 30.449219 C 39.863281 27.742188 41.046875 24.992188 41.046875 21.941406 Z M 17.335938 26.480469 L 13.953125 26.480469 C 13.460938 26.480469 13.058594 26.078125 13.058594 25.585938 L 13.058594 18.8125 C 13.058594 18.320312 13.460938 17.917969 13.953125 17.917969 C 14.445312 17.917969 14.84375 18.320312 14.84375 18.8125 L 14.84375 24.691406 L 17.335938 24.691406 C 17.832031 24.691406 18.230469 25.089844 18.230469 25.582031 C 18.230469 26.078125 17.832031 26.480469 17.335938 26.480469 Z M 20.839844 25.585938 C 20.839844 26.078125 20.4375 26.480469 19.945312 26.480469 C 19.453125 26.480469 19.050781 26.078125 19.050781 25.585938 L 19.050781 18.8125 C 19.050781 18.320312 19.453125 17.917969 19.945312 17.917969 C 20.4375 17.917969 20.839844 18.320312 20.839844 18.8125 Z M 28.988281 25.585938 C 28.988281 25.972656 28.746094 26.3125 28.378906 26.433594 C 28.285156 26.464844 28.191406 26.480469 28.09375 26.480469 C 27.816406 26.480469 27.550781 26.34375 27.382812 26.121094 L 23.910156 21.394531 L 23.910156 25.585938 C 23.910156 26.078125 23.511719 26.480469 23.015625 26.480469 C 22.523438 26.480469 22.121094 26.078125 22.121094 25.585938 L 22.121094 18.8125 C 22.121094 18.429688 22.367188 18.085938 22.734375 17.964844 C 22.824219 17.933594 22.921875 17.917969 23.015625 17.917969 C 23.296875 17.917969 23.5625 18.054688 23.730469 18.277344 L 27.203125 23.003906 L 27.203125 18.8125 C 27.203125 18.320312 27.605469 17.917969 28.097656 17.917969 C 28.589844 17.917969 28.988281 18.320312 28.988281 18.8125 Z M 34.46875 21.304688 C 34.960938 21.304688 35.363281 21.707031 35.363281 22.199219 C 35.363281 22.691406 34.960938 23.09375 34.46875 23.09375 L 31.976562 23.09375 L 31.976562 24.691406 L 34.46875 24.691406 C 34.960938 24.691406 35.363281 25.09375 35.363281 25.585938 C 35.363281 26.078125 34.960938 26.480469 34.46875 26.480469 L 31.082031 26.480469 C 30.589844 26.480469 30.1875 26.078125 30.1875 25.585938 L 30.1875 18.816406 C 30.1875 18.816406 30.1875 18.816406 30.1875 18.8125 C 30.1875 18.320312 30.589844 17.921875 31.082031 17.921875 L 34.46875 17.921875 C 34.960938 17.921875 35.363281 18.320312 35.363281 18.8125 C 35.363281 19.308594 34.960938 19.707031 34.46875 19.707031 L 31.976562 19.707031 L 31.976562 21.304688 Z M 34.46875 21.304688 "/>
</g>
</svg>
